<svg width="48" height="48" viewBox="0 0 48 48" fill="none" xmlns="http://www.w3.org/2000/svg">
<path d="M7.5 4C7.36739 4 7.24021 4.05268 7.14645 4.14645C7.05268 4.24021 7 4.36739 7 4.5V6.5C7 6.63261 7.05268 6.75979 7.14645 6.85355C7.24021 6.94732 7.36739 7 7.5 7H12.5C12.6326 7 12.7598 6.94732 12.8536 6.85355C12.9473 6.75979 13 6.63261 13 6.5V4.5C13 4.36739 12.9473 4.24021 12.8536 4.14645C12.7598 4.05268 12.6326 4 12.5 4H7.5ZM7 8.5C7 8.36739 7.05268 8.24021 7.14645 8.14645C7.24021 8.05268 7.36739 8 7.5 8H12.5C12.6326 8 12.7598 8.05268 12.8536 8.14645C12.9473 8.24021 13 8.36739 13 8.5V13.5C13 13.6326 12.9473 13.7598 12.8536 13.8536C12.7598 13.9473 12.6326 14 12.5 14H7.5C7.36739 14 7.24021 13.9473 7.14645 13.8536C7.05268 13.7598 7 13.6326 7 13.5V8.5ZM9.5 15C9.36739 15 9.24021 15.0527 9.14645 15.1464C9.05268 15.2402 9 15.3674 9 15.5C9 15.6326 9.05268 15.7598 9.14645 15.8536C9.24021 15.9473 9.36739 16 9.5 16H10.5C10.6326 16 10.7598 15.9473 10.8536 15.8536C10.9473 15.7598 11 15.6326 11 15.5C11 15.3674 10.9473 15.2402 10.8536 15.1464C10.7598 15.0527 10.6326 15 10.5 15H9.5ZM7 2C6.46957 2 5.96086 2.21071 5.58579 2.58579C5.21071 2.96086 5 3.46957 5 4V16C5 16.5304 5.21071 17.0391 5.58579 17.4142C5.96086 17.7893 6.46957 18 7 18H13C13.5304 18 14.0391 17.7893 14.4142 17.4142C14.7893 17.0391 15 16.5304 15 16V4C15 3.46957 14.7893 2.96086 14.4142 2.58579C14.0391 2.21071 13.5304 2 13 2H7ZM6 4C6 3.73478 6.10536 3.48043 6.29289 3.29289C6.48043 3.10536 6.73478 3 7 3H13C13.2652 3 13.5196 3.10536 13.7071 3.29289C13.8946 3.48043 14 3.73478 14 4V16C14 16.2652 13.8946 16.5196 13.7071 16.7071C13.5196 16.8946 13.2652 17 13 17H7C6.73478 17 6.48043 16.8946 6.29289 16.7071C6.10536 16.5196 6 16.2652 6 16V4Z" fill="white"/>
<path d="M31.5 4C32.6935 4 33.8381 4.47411 34.682 5.31802C35.5259 6.16193 36 7.30653 36 8.5V39.5C36 40.6935 35.5259 41.8381 34.682 42.682C33.8381 43.5259 32.6935 44 31.5 44H16.5C15.3065 44 14.1619 43.5259 13.318 42.682C12.4741 41.8381 12 40.6935 12 39.5V8.5C12 7.30653 12.4741 6.16193 13.318 5.31802C14.1619 4.47411 15.3065 4 16.5 4H31.5ZM31.5 7H16.5C16.1022 7 15.7206 7.15804 15.4393 7.43934C15.158 7.72064 15 8.10218 15 8.5V39.5C15 40.328 15.672 41 16.5 41H31.5C31.8978 41 32.2794 40.842 32.5607 40.5607C32.842 40.2794 33 39.8978 33 39.5V8.5C33 8.10218 32.842 7.72064 32.5607 7.43934C32.2794 7.15804 31.8978 7 31.5 7ZM26.498 35C26.8958 34.9995 27.2776 35.157 27.5592 35.4379C27.8409 35.7189 27.9995 36.1002 28 36.498C28.0005 36.8958 27.843 37.2776 27.5621 37.5592C27.2811 37.8409 26.8998 37.9995 26.502 38L21.502 38.008C21.1042 38.0085 20.7224 37.851 20.4408 37.5701C20.1591 37.2891 20.0005 36.9078 20 36.51C19.9995 36.1122 20.157 35.7304 20.4379 35.4488C20.7189 35.1671 21.1002 35.0085 21.498 35.008L26.498 35ZM29 17.998C29.2341 17.9979 29.4607 18.0799 29.6405 18.2298C29.8203 18.3796 29.9419 18.5878 29.984 18.818L30 18.998V31C30.0001 31.2341 29.9181 31.4607 29.7682 31.6405C29.6184 31.8203 29.4102 31.9419 29.18 31.984L29 32H19C18.7659 32.0001 18.5393 31.9181 18.3595 31.7682C18.1797 31.6184 18.0581 31.4102 18.016 31.18L18 31.002V19C17.9999 18.7659 18.0819 18.5393 18.2318 18.3595C18.3816 18.1797 18.5898 18.0581 18.82 18.016L19 18H29V17.998ZM29 10C29.2341 9.99992 29.4607 10.0819 29.6405 10.2318C29.8203 10.3816 29.9419 10.5898 29.984 10.82L30 11V15.01C30.0001 15.2441 29.9181 15.4707 29.7682 15.6505C29.6184 15.8303 29.4102 15.9519 29.18 15.994L29 16.01H19C18.7659 16.0101 18.5393 15.9281 18.3595 15.7782C18.1797 15.6284 18.0581 15.4202 18.016 15.19L18 15.008V11C17.9999 10.7659 18.0819 10.5393 18.2318 10.3595C18.3816 10.1797 18.5898 10.0581 18.82 10.016L19 10H29Z" fill="#2FA2FD"/>
</svg>
