<svg width="48" height="48" viewBox="0 0 48 48" fill="none" xmlns="http://www.w3.org/2000/svg">
<path d="M21 26.64C21.4973 26.64 21.9742 26.8375 22.3258 27.1891C22.6775 27.5408 22.875 28.0177 22.875 28.515C22.875 29.0122 22.6775 29.4892 22.3258 29.8408C21.9742 30.1924 21.4973 30.39 21 30.39C20.5027 30.39 20.0258 30.1924 19.6742 29.8408C19.3226 29.4892 19.125 29.0122 19.125 28.515C19.125 28.0177 19.3226 27.5408 19.6742 27.1891C20.0258 26.8375 20.5027 26.64 21 26.64ZM21 12.009C24.093 12.009 26.559 14.547 26.559 17.859C26.559 19.617 25.917 20.583 24.378 21.813L23.547 22.458C22.809 23.04 22.56 23.358 22.509 23.802L22.476 24.27C22.4092 24.6388 22.2068 24.9693 21.9085 25.1963C21.6102 25.4233 21.2378 25.5305 20.8645 25.4966C20.4912 25.4627 20.1441 25.2903 19.8915 25.0133C19.639 24.7363 19.4993 24.3748 19.5 24C19.5 22.29 20.13 21.348 21.648 20.136L22.482 19.491C23.346 18.801 23.562 18.465 23.562 17.859C23.562 16.185 22.416 15.009 21 15.009C19.518 15.009 18.423 16.107 18.441 17.844C18.445 18.2418 18.2908 18.6249 18.0123 18.909C17.8744 19.0497 17.7101 19.1618 17.5289 19.239C17.3477 19.3162 17.153 19.357 16.956 19.359C16.5582 19.3629 16.1751 19.2087 15.891 18.9302C15.6068 18.6517 15.445 18.2718 15.441 17.874C15.408 14.46 17.856 12.009 21 12.009ZM6.00001 21C6.00124 17.7541 7.05532 14.5961 9.00401 12.0003C10.9527 9.40444 13.6908 7.51073 16.8074 6.60347C19.9239 5.69621 23.2506 5.82436 26.2881 6.96867C29.3256 8.11298 31.91 10.2117 33.6532 12.9498C35.3964 15.6878 36.2045 18.9175 35.956 22.1539C35.7075 25.3902 34.416 28.4587 32.2752 30.8986C30.1344 33.3384 27.26 35.0181 24.0834 35.6853C20.9068 36.3525 17.5995 35.9713 14.658 34.599L7.79401 35.97C7.55205 36.0181 7.30193 36.0059 7.06583 35.9343C6.82973 35.8627 6.61494 35.7339 6.44049 35.5595C6.26603 35.385 6.1373 35.1702 6.0657 34.9341C5.9941 34.698 5.98184 34.4479 6.03001 34.206L7.40101 27.339C6.4753 25.3541 5.99702 23.1901 6.00001 21ZM21 8.99996C18.946 8.99944 16.9262 9.52617 15.134 10.5297C13.3418 11.5333 11.8372 12.9801 10.7643 14.7316C9.69134 16.4831 9.08595 18.4807 9.00606 20.5332C8.92616 22.5857 9.37446 24.6243 10.308 26.454C10.4621 26.7554 10.5097 27.1001 10.443 27.432L9.41101 32.589L14.568 31.557C14.8999 31.4903 15.2446 31.5379 15.546 31.692C17.1622 32.5155 18.944 32.9619 20.7576 32.9976C22.5711 33.0334 24.3691 32.6575 26.0165 31.8984C27.6639 31.1392 29.1177 30.0164 30.2687 28.6145C31.4197 27.2126 32.2379 25.5679 32.6618 23.8043C33.0857 22.0406 33.1042 20.2038 32.7161 18.432C32.3279 16.6601 31.5431 14.9993 30.4207 13.5744C29.2982 12.1495 27.8674 10.9976 26.2357 10.2053C24.604 9.41296 22.8139 9.00086 21 8.99996ZM17.58 38.676C20.2456 40.832 23.5716 42.0056 27 42C29.262 42 31.41 41.499 33.339 40.599L40.206 41.97C40.448 42.0181 40.6981 42.0059 40.9342 41.9343C41.1703 41.8627 41.3851 41.7339 41.5595 41.5595C41.734 41.385 41.8627 41.1702 41.9343 40.9341C42.0059 40.698 42.0182 40.4479 41.97 40.206L40.599 33.342C41.499 31.413 42 29.262 42 27C42.005 23.5726 40.8314 20.2478 38.676 17.583C39.1035 19.8039 39.1106 22.0854 38.697 24.309C39.326 27.0579 38.9704 29.9404 37.692 32.454C37.5379 32.7554 37.4904 33.1001 37.557 33.432L38.589 38.589L33.429 37.557C33.0981 37.491 32.7546 37.5386 32.454 37.692C29.94 38.9723 27.0558 39.328 24.306 38.697C22.0824 39.1104 19.801 39.1033 17.58 38.676Z" fill="#2FA2FD"/>
</svg>
