<svg width="48" height="48" viewBox="0 0 48 48" fill="none" xmlns="http://www.w3.org/2000/svg">
<path d="M14.4 6.00005C14.4 5.68179 14.2736 5.37656 14.0485 5.15152C13.8235 4.92648 13.5183 4.80005 13.2 4.80005C12.8817 4.80005 12.5765 4.92648 12.3515 5.15152C12.1264 5.37656 12 5.68179 12 6.00005V10.8C12 11.7548 12.3793 12.6705 13.0544 13.3456C13.7295 14.0208 14.6452 14.4 15.6 14.4H16.104L12.6 21.792C12.1815 22.6756 11.9853 23.648 12.0284 24.6247C12.0715 25.6014 12.3526 26.5528 12.8472 27.396L21.1584 41.5729C21.4492 42.0681 21.8644 42.4788 22.3628 42.7642C22.8613 43.0495 23.4257 43.1996 24 43.1996C24.5743 43.1996 25.1387 43.0495 25.6372 42.7642C26.1356 42.4788 26.5508 42.0681 26.8416 41.5729L35.1528 27.396C35.6471 26.5526 35.9277 25.6011 35.9704 24.6244C36.0131 23.6477 35.8164 22.6754 35.3976 21.792L31.896 14.4H32.4C33.3548 14.4 34.2705 14.0208 34.9456 13.3456C35.6207 12.6705 36 11.7548 36 10.8V6.00005C36 5.68179 35.8736 5.37656 35.6485 5.15152C35.4235 4.92648 35.1183 4.80005 34.8 4.80005C34.4817 4.80005 34.1765 4.92648 33.9515 5.15152C33.7264 5.37656 33.6 5.68179 33.6 6.00005V10.8C33.6 11.1183 33.4736 11.4235 33.2485 11.6486C33.0235 11.8736 32.7183 12 32.4 12H15.6C15.2817 12 14.9765 11.8736 14.7515 11.6486C14.5264 11.4235 14.4 11.1183 14.4 10.8V6.00005ZM29.2416 14.4L33.2304 22.8216C33.481 23.3515 33.5984 23.9345 33.5725 24.5201C33.5466 25.1056 33.3781 25.676 33.0816 26.1817L25.2 39.6264V26.0784C25.6575 25.8143 26.0151 25.4065 26.2173 24.9184C26.4195 24.4303 26.455 23.8891 26.3182 23.3788C26.1815 22.8685 25.8802 22.4176 25.461 22.0959C25.0419 21.7743 24.5283 21.6 24 21.6C23.4717 21.6 22.9581 21.7743 22.539 22.0959C22.1198 22.4176 21.8185 22.8685 21.6818 23.3788C21.545 23.8891 21.5805 24.4303 21.7827 24.9184C21.9849 25.4065 22.3425 25.8143 22.8 26.0784V39.6264L14.9184 26.184C14.6219 25.6784 14.4534 25.1081 14.4275 24.5225C14.4016 23.9369 14.519 23.3539 14.7696 22.8241L18.7584 14.4H29.2416Z" fill="#2FA2FD"/>
</svg>
