<svg width="48" height="48" viewBox="0 0 48 48" fill="none" xmlns="http://www.w3.org/2000/svg">
<path d="M24 7.20005C23.0452 7.20005 22.1295 7.57933 21.4544 8.25446C20.7793 8.9296 20.4 9.84527 20.4 10.8C20.4 11.7548 20.7793 12.6705 21.4544 13.3456C22.1295 14.0208 23.0452 14.4 24 14.4C24.9548 14.4 25.8704 14.0208 26.5456 13.3456C27.2207 12.6705 27.6 11.7548 27.6 10.8C27.6 9.84527 27.2207 8.9296 26.5456 8.25446C25.8704 7.57933 24.9548 7.20005 24 7.20005ZM18 10.8C18 9.20875 18.6321 7.68263 19.7573 6.55741C20.8826 5.43219 22.4087 4.80005 24 4.80005C25.5913 4.80005 27.1174 5.43219 28.2426 6.55741C29.3678 7.68263 30 9.20875 30 10.8C30 12.3913 29.3678 13.9175 28.2426 15.0427C27.1174 16.1679 25.5913 16.8 24 16.8C22.4087 16.8 20.8826 16.1679 19.7573 15.0427C18.6321 13.9175 18 12.3913 18 10.8ZM37.2 9.60005C36.5635 9.60005 35.953 9.85291 35.5029 10.303C35.0528 10.7531 34.8 11.3635 34.8 12C34.8 12.6366 35.0528 13.247 35.5029 13.6971C35.953 14.1472 36.5635 14.4 37.2 14.4C37.8365 14.4 38.447 14.1472 38.897 13.6971C39.3471 13.247 39.6 12.6366 39.6 12C39.6 11.3635 39.3471 10.7531 38.897 10.303C38.447 9.85291 37.8365 9.60005 37.2 9.60005ZM32.4 12C32.4 10.727 32.9057 9.50611 33.8059 8.60594C34.7061 7.70576 35.927 7.20005 37.2 7.20005C38.473 7.20005 39.6939 7.70576 40.5941 8.60594C41.4943 9.50611 42 10.727 42 12C42 13.2731 41.4943 14.494 40.5941 15.3942C39.6939 16.2943 38.473 16.8 37.2 16.8C35.927 16.8 34.7061 16.2943 33.8059 15.3942C32.9057 14.494 32.4 13.2731 32.4 12ZM8.39999 12C8.39999 11.3635 8.65284 10.7531 9.10293 10.303C9.55302 9.85291 10.1635 9.60005 10.8 9.60005C11.4365 9.60005 12.047 9.85291 12.497 10.303C12.9471 10.7531 13.2 11.3635 13.2 12C13.2 12.6366 12.9471 13.247 12.497 13.6971C12.047 14.1472 11.4365 14.4 10.8 14.4C10.1635 14.4 9.55302 14.1472 9.10293 13.6971C8.65284 13.247 8.39999 12.6366 8.39999 12ZM10.8 7.20005C9.52695 7.20005 8.30605 7.70576 7.40588 8.60594C6.5057 9.50611 5.99999 10.727 5.99999 12C5.99999 13.2731 6.5057 14.494 7.40588 15.3942C8.30605 16.2943 9.52695 16.8 10.8 16.8C12.073 16.8 13.2939 16.2943 14.1941 15.3942C15.0943 14.494 15.6 13.2731 15.6 12C15.6 10.727 15.0943 9.50611 14.1941 8.60594C13.2939 7.70576 12.073 7.20005 10.8 7.20005ZM12.24 35.9953C11.5901 36.0278 10.9405 35.9279 10.3304 35.7015C9.72042 35.4752 9.16277 35.1273 8.69138 34.6788C8.21999 34.2303 7.84471 33.6906 7.58833 33.0926C7.33195 32.4946 7.19982 31.8507 7.19999 31.2001V22.2001C7.19999 22.0409 7.2632 21.8883 7.37572 21.7758C7.48825 21.6633 7.64086 21.6 7.79999 21.6H12.0336C12.1296 20.7192 12.4416 19.9008 12.9096 19.2H7.79999C6.14399 19.2 4.79999 20.544 4.79999 22.2001V31.2001C4.79988 32.2275 5.01968 33.2431 5.44463 34.1786C5.86958 35.1141 6.48984 35.9478 7.26372 36.6237C8.0376 37.2996 8.94718 37.8021 9.93135 38.0973C10.9155 38.3925 11.9515 38.4736 12.9696 38.3353C12.6466 37.5824 12.4021 36.7983 12.24 35.9953ZM35.0304 38.3353C36.0485 38.4736 37.0845 38.3925 38.0686 38.0973C39.0528 37.8021 39.9624 37.2996 40.7363 36.6237C41.5101 35.9478 42.1304 35.1141 42.5553 34.1786C42.9803 33.2431 43.2001 32.2275 43.2 31.2001V22.2001C43.2 20.544 41.856 19.2 40.2 19.2H35.0904C35.5608 19.9008 35.8704 20.7192 35.9664 21.6H40.2C40.3591 21.6 40.5117 21.6633 40.6243 21.7758C40.7368 21.8883 40.8 22.0409 40.8 22.2001V31.2001C40.8002 31.8507 40.668 32.4946 40.4117 33.0926C40.1553 33.6906 39.78 34.2303 39.3086 34.6788C38.8372 35.1273 38.2796 35.4752 37.6695 35.7015C37.0595 35.9279 36.4098 36.0278 35.76 35.9953C35.5979 36.7983 35.3534 37.5824 35.0304 38.3353ZM17.4 19.2C15.744 19.2 14.4 20.544 14.4 22.2001V33.6C14.4 36.1461 15.4114 38.5879 17.2118 40.3883C19.0121 42.1886 21.4539 43.2001 24 43.2001C26.5461 43.2001 28.9879 42.1886 30.7882 40.3883C32.5886 38.5879 33.6 36.1461 33.6 33.6V22.2001C33.6 20.544 32.256 19.2 30.6 19.2H17.4ZM16.8 22.2001C16.8 22.0409 16.8632 21.8883 16.9757 21.7758C17.0882 21.6633 17.2409 21.6 17.4 21.6H30.6C30.7591 21.6 30.9117 21.6633 31.0243 21.7758C31.1368 21.8883 31.2 22.0409 31.2 22.2001V33.6C31.2 35.5096 30.4414 37.341 29.0912 38.6912C27.7409 40.0415 25.9095 40.8 24 40.8C22.0904 40.8 20.2591 40.0415 18.9088 38.6912C17.5586 37.341 16.8 35.5096 16.8 33.6V22.2001Z" fill="#2FA2FD"/>
</svg>
